<svg id="Ibm-Z-Os--Streamline-Carbon" xmlns="http://www.w3.org/2000/svg" viewBox="0 0 24 24" height="24" width="24"><desc>Ibm Z Os Streamline Icon: https://streamlinehq.com</desc><defs></defs><path d="M12 24c-3.809475 0 -7.308674999999999 -1.748925 -9.59985 -4.798425l1.199325 -0.90105C5.604675 20.9694 8.66655 22.500075 12 22.500075s6.396075 -1.5309750000000002 8.40105 -4.200375l1.199325 0.9009C19.30935 22.250700000000002 15.810225 24.000075000000002 12 24.000075000000002Z" fill="#000000" stroke-width="0.75"></path><path d="M22.5 16.5h-3.75v-1.5h3.75v-2.25h-2.25c-0.8271 0 -1.5 -0.6729 -1.5 -1.5v-2.25c0 -0.8271 0.6729 -1.5 1.5 -1.5h3.75v1.5h-3.75v2.25h2.25c0.8271 0 1.5 0.6729 1.5 1.5v2.25c0 0.8271 -0.6729 1.5 -1.5 1.5Z" fill="#000000" stroke-width="0.75"></path><path d="M15.75 16.5h-3c-0.8271 0 -1.5 -0.6729 -1.5 -1.5v-6c0 -0.8271 0.6729 -1.5 1.5 -1.5h3c0.8271 0 1.5 0.6729 1.5 1.5v6c0 0.8271 -0.6729 1.5 -1.5 1.5Zm-3 -7.5v6h3v-6h-3Z" fill="#000000" stroke-width="0.75"></path><path d="m8.58435 7.5 -3 9 1.5813000000000001 0 3 -9 -1.5813000000000001 0z" fill="#000000" stroke-width="0.75"></path><path d="m4.5 16.5 -4.5 0 0 -1.7270250000000003L2.848575 10.5 0 10.5l0 -1.5 4.5 0 0 1.7270250000000003L1.6514250000000001 15 4.5 15l0 1.5z" fill="#000000" stroke-width="0.75"></path><path d="M12.000074999999999 0C8.190525000000001 0 4.6914 1.748925 2.400225 4.798425l1.199325 0.90105c2.0052 -2.668875 5.067075 -4.19955 8.400525 -4.19955s6.396075 1.5309750000000002 8.40105 4.200375l1.199325 -0.9009C19.309424999999997 1.7493750000000001 15.810300000000002 0 12.000074999999999 0Z" fill="#000000" stroke-width="0.75"></path><path id="_Transparent_Rectangle_" d="M0 0h24v24H0Z" fill="none" stroke-width="0.75"></path></svg>