<svg width="50" height="50" viewBox="0 0 50 50" fill="none" xmlns="http://www.w3.org/2000/svg">
<path d="M25.3726 17.3171C23.7936 14.8844 24.6155 10 24.6155 10C24.6155 10 14.0099 17.9621 11.7451 25.3659C10.0686 30.8463 11.7451 40 11.7451 40C11.7451 40 14.0958 36.4442 16.2876 34.878C19.0703 32.8897 21.1894 32.4222 24.6155 31.9512C26.9572 31.6293 28.3069 31.9512 30.6721 31.9512C32.1504 31.9512 33.0433 32.3672 34.4575 31.9512C37.0653 31.1842 39 26.8293 39 26.8293C39 26.8293 36.0328 26.3396 34.4575 25.3659C32.5122 24.1634 30.6721 20.9756 30.6721 20.9756C30.6721 20.9756 26.7241 19.3994 25.3726 17.3171Z" stroke="#F2F2F2" stroke-width="3"/>
</svg>
