<svg viewBox="0 0 24 24" fill="none" xmlns="http://www.w3.org/2000/svg" id="Chat-Unread--Streamline-Solar"><desc>Chat Unread Streamline Icon: https://streamlinehq.com</desc><path d="m13.0867 21.3877 0.5421 -0.9159c0.4204 -0.7104 0.6307 -1.0656 0.9684 -1.262 0.3377 -0.1964 0.7628 -0.2037 1.6132 -0.2183 1.2554 -0.0217 2.0427 -0.0986 2.703 -0.3721 1.2252 -0.5075 2.1985 -1.4808 2.706 -2.706C22 14.9946 22 13.8297 22 11.5v-1c0 -0.3697 0 -0.71847 -0.0011 -1.04813 -0.0013 -0.42733 -0.5238 -0.6688 -0.9018 -0.46937C20.4709 9.31294 19.7573 9.5 19 9.5c-2.4853 0 -4.5 -2.01472 -4.5 -4.5 0 -0.75729 0.1871 -1.47089 0.5175 -2.09712 0.1994 -0.37794 -0.042 -0.90044 -0.4694 -0.90182C14.2185 2 13.8697 2 13.5 2h-3c-3.27343 0 -4.91015 0 -6.11249 0.7368 -0.67278 0.41228 -1.23843 0.97793 -1.65071 1.65071C2 5.58985 2 7.22657 2 10.5v1c0 2.3297 0 3.4946 0.3806 4.4134 0.50747 1.2252 1.48084 2.1985 2.70598 2.706 0.66031 0.2735 1.44764 0.3504 2.703 0.3721 0.85034 0.0146 1.27551 0.0219 1.61321 0.2183 0.3377 0.1965 0.54794 0.5516 0.96841 1.262l0.5421 0.9159c0.4832 0.8163 1.6902 0.8163 2.1734 0Z" fill="#000000" stroke-width="1"></path><path fill="#000000" d="M16 5a3 3 0 1 0 6 0 3 3 0 1 0 -6 0" stroke-width="1"></path></svg>