<svg viewBox="0 0 24 24" fill="none" xmlns="http://www.w3.org/2000/svg" id="Square-Top-Down--Streamline-Solar"><desc>Square Top Down Streamline Icon: https://streamlinehq.com</desc><path fill-rule="evenodd" clip-rule="evenodd" d="M14.25 3c0 -0.41421 0.3358 -0.75 0.75 -0.75h6c0.4142 0 0.75 0.33579 0.75 0.75v6c0 0.41421 -0.3358 0.75 -0.75 0.75s-0.75 -0.33579 -0.75 -0.75V4.81066l-6.7197 6.71964c-0.2929 0.2929 -0.7677 0.2929 -1.0606 0 -0.2929 -0.2929 -0.2929 -0.7677 0 -1.0606L19.1893 3.75H15c-0.4142 0 -0.75 -0.33579 -0.75 -0.75Z" fill="#000000" stroke-width="1"></path><path d="M21.9995 11.0164c-0.3012 0.1495 -0.6405 0.2336 -0.9995 0.2336 -1.2426 0 -2.25 -1.0074 -2.25 -2.25v-0.56802L14.591 12.591c-0.8787 0.8787 -2.3033 0.8787 -3.182 0 -0.8787 -0.8787 -0.8787 -2.3033 0 -3.18199L15.568 5.25H15c-1.2426 0 -2.25 -1.00736 -2.25 -2.25 0 -0.35899 0.0841 -0.69835 0.2336 -0.99945C12.6676 2 12.3399 2 12 2 7.28596 2 4.92893 2 3.46447 3.46447 2 4.92893 2 7.28596 2 12c0 4.714 0 7.0711 1.46447 8.5355C4.92893 22 7.28596 22 12 22c4.714 0 7.0711 0 8.5355 -1.4645C22 19.0711 22 16.714 22 12c0 -0.3399 0 -0.6676 -0.0005 -0.9836Z" fill="#000000" stroke-width="1"></path></svg>