<svg viewBox="-0.625 -0.625 20 20" fill="none" xmlns="http://www.w3.org/2000/svg" id="Flashlight-On--Streamline-Solar-Ar" height="20" width="20"><desc>Flashlight On Streamline Icon: https://streamlinehq.com</desc><path d="M11.71875 17.1875v-3.3930468749999996c0 -0.638671875 0 -0.958046875 0.11890625 -1.2451562500000002 0.11898437499999999 -0.2871875 0.344765625 -0.51296875 0.7964062500000001 -0.9646093749999999l2.53328125 -2.53328125c0.22578125 -0.22578125 0.33875 -0.33875 0.39820312500000005 -0.482265625 0.059453125 -0.14359375 0.059453125 -0.30328125 0.059453125 -0.6225781250000001V7.8125c0 -0.7365703125 0 -1.1048515625 -0.228828125 -1.3336796874999999C15.16734375 6.25 14.799062499999998 6.25 14.0625 6.25H4.6875c-0.7365703125 0 -1.1048515625 0 -1.3336796874999999 0.22882031249999998C3.125 6.7076484375 3.125 7.0759296875 3.125 7.8125v0.1340625c0 0.319296875 0 0.47898437499999996 0.059468749999999994 0.6225781250000001 0.059468749999999994 0.143515625 0.172375 0.256484375 0.3981796875 0.482265625l2.5333125 2.53328125c0.45160937500000004 0.45164062499999996 0.6774140625 0.677421875 0.7963515625 0.9646093749999999C7.03125 12.83640625 7.03125 13.15578125 7.03125 13.794453125V17.1875" stroke="#000000" stroke-linecap="round" stroke-width="1.25"></path><path d="M11.71875 12.5H7.03125" stroke="#000000" stroke-linecap="round" stroke-width="1.25"></path><path d="M3.515625 8.59375h11.71875" stroke="#000000" stroke-linecap="round" stroke-width="1.25"></path><path d="M9.375 3.90625V1.5625" stroke="#000000" stroke-linecap="round" stroke-width="1.25"></path><path d="M6.25 3.90625 4.6875 2.34375" stroke="#000000" stroke-linecap="round" stroke-width="1.25"></path><path d="m12.5 3.90625 1.5625 -1.5625" stroke="#000000" stroke-linecap="round" stroke-width="1.25"></path><path d="M9.375 14.84375v1.5625" stroke="#000000" stroke-linecap="round" stroke-width="1.25"></path></svg>