<svg viewBox="0 0 24 24" fill="none" xmlns="http://www.w3.org/2000/svg" id="Forward--Streamline-Solar"><desc>Forward Streamline Icon: https://streamlinehq.com</desc><path fill-rule="evenodd" clip-rule="evenodd" d="M13.9697 6.46967c0.2929 -0.29289 0.7677 -0.29289 1.0606 0l5 5.00003c0.2929 0.2929 0.2929 0.7677 0 1.0606l-5 5c-0.2929 0.2929 -0.7677 0.2929 -1.0606 0 -0.2929 -0.2929 -0.2929 -0.7677 0 -1.0606l3.7196 -3.7197 -8.1893 0c-0.71332 0 -1.79998 0.2202 -2.68677 0.8587C5.96468 14.2196 5.25 15.2444 5.25 17c0 0.4142 -0.33579 0.75 -0.75 0.75s-0.75 -0.3358 -0.75 -0.75c0 -2.2444 0.95198 -3.7196 2.18677 -4.6087C7.13332 11.5298 8.54665 11.25 9.5 11.25l8.1893 0 -3.7196 -3.71967c-0.2929 -0.29289 -0.2929 -0.76777 0 -1.06066Z" fill="#000000" stroke-width="1"></path></svg>