<svg viewBox="0 0 24 24" fill="none" xmlns="http://www.w3.org/2000/svg" id="Mention-Square--Streamline-Solar"><desc>Mention Square Streamline Icon: https://streamlinehq.com</desc><path d="M12 10.35c0.9113 0 1.65 0.7387 1.65 1.65 0 0.9113 -0.7387 1.65 -1.65 1.65 -0.9113 0 -1.65 -0.7387 -1.65 -1.65 0 -0.9113 0.7387 -1.65 1.65 -1.65Z" fill="#000000" stroke-width="1"></path><path fill-rule="evenodd" clip-rule="evenodd" d="M3.46447 3.46447C2 4.92893 2 7.28595 2 12c0 4.714 0 7.0711 1.46447 8.5355C4.92893 22 7.28595 22 12 22c4.714 0 7.0711 0 8.5355 -1.4645C22 19.0711 22 16.714 22 12c0 -4.71405 0 -7.07107 -1.4645 -8.53553C19.0711 2 16.714 2 12 2 7.28595 2 4.92893 2 3.46447 3.46447ZM6.75 12c0 -2.8995 2.3505 -5.25 5.25 -5.25s5.25 2.3505 5.25 5.25c0 0.6327 -0.1116 1.2376 -0.3155 1.7973 -0.0354 0.0971 -0.105 0.2016 -0.2162 0.3042l-0.0806 0.0743c-0.3008 0.2775 -0.7524 0.313 -1.0929 0.086 -0.2467 -0.1644 -0.3948 -0.4412 -0.3948 -0.7377V12c0 -1.7397 -1.4103 -3.15 -3.15 -3.15 -1.7397 0 -3.15 1.4103 -3.15 3.15 0 1.7397 1.4103 3.15 3.15 3.15 0.7017 0 1.3499 -0.2295 1.8735 -0.6175 0.1822 0.3908 0.4696 0.731 0.8392 0.9774 0.9167 0.6111 2.1324 0.5153 2.9421 -0.2316l0.0806 -0.0743c0.2501 -0.2308 0.4756 -0.5284 0.6085 -0.8932 0.263 -0.7219 0.4061 -1.5005 0.4061 -2.3108 0 -3.72792 -3.0221 -6.75 -6.75 -6.75 -3.72792 0 -6.75 3.02208 -6.75 6.75 0 3.7279 3.02208 6.75 6.75 6.75 0.4142 0 0.75 -0.3358 0.75 -0.75s-0.3358 -0.75 -0.75 -0.75c-2.8995 0 -5.25 -2.3505 -5.25 -5.25Z" fill="#000000" stroke-width="1"></path></svg>