<svg viewBox="0 0 24 24" fill="none" xmlns="http://www.w3.org/2000/svg" id="Plain--Streamline-Solar"><desc>Plain Streamline Icon: https://streamlinehq.com</desc><path d="m18.6357 15.6701 1.7164 -5.1493c1.4995 -4.49838 2.2492 -6.74758 1.0619 -7.93485 -1.1872 -1.18726 -3.4364 -0.43753 -7.9348 1.06193L8.32987 5.36432C4.69923 6.57453 2.88392 7.17964 2.36806 8.06698c-0.49075 0.84414 -0.49075 1.88671 0 2.73082 0.51586 0.8874 2.33117 1.4925 5.96181 2.7027 0.44994 0.15 0.95614 0.0429 1.29307 -0.2909l5.50566 -5.45465c0.3097 -0.30687 0.8096 -0.30454 1.1164 0.0052 0.3069 0.30974 0.3046 0.8096 -0.0052 1.11647l-5.4167 5.36658c-0.3713 0.3679 -0.4889 0.931 -0.3236 1.4269 1.2102 3.6306 1.8153 5.446 2.7027 5.9618 0.8441 0.4908 1.8867 0.4908 2.7308 0 0.8874 -0.5158 1.4925 -2.3311 2.7027 -5.9618Z" fill="#000000" stroke-width="1"></path></svg>