<svg viewBox="0 0 16 16" fill="none" xmlns="http://www.w3.org/2000/svg" id="Robot--Streamline-Unicons" height="16" width="16"><desc>Robot Streamline Icon: https://streamlinehq.com</desc><path d="M6 10c-0.13185333333333332 0 -0.2607466666666667 0.039066666666666666 -0.37038 0.11233333333333334 -0.10963333333333333 0.07326666666666666 -0.19507999999999998 0.1774 -0.24554 0.29919999999999997 -0.05045999999999999 0.12179999999999999 -0.06366 0.25586666666666663 -0.03794 0.3852 0.025726666666666665 0.12933333333333333 0.08922 0.24813333333333332 0.1824533333333333 0.3413333333333333 0.09324 0.09326666666666666 0.21202666666666664 0.15673333333333334 0.3413466666666667 0.18246666666666667 0.12932 0.025733333333333334 0.26336666666666664 0.012533333333333334 0.38517999999999997 -0.03793333333333333 0.12182 -0.05046666666666667 0.22593999999999997 -0.13593333333333332 0.2991933333333333 -0.24553333333333333C6.627566666666667 10.9274 6.666666666666666 10.798533333333333 6.666666666666666 10.666666666666666c0 -0.17679999999999998 -0.07024 -0.34639999999999993 -0.19526 -0.47139999999999993C6.34638 10.070266666666665 6.176813333333333 10 6 10Zm-4.666666666666666 -0.6666666666666666c-0.17681333333333332 0 -0.34637999999999997 0.07026666666666666 -0.47140666666666664 0.19526666666666664C0.7369066666666666 9.653599999999999 0.6666666666666666 9.8232 0.6666666666666666 10v1.3333333333333333c0 0.17679999999999998 0.07024 0.34639999999999993 0.19526 0.47139999999999993C0.9869533333333332 11.929733333333333 1.15652 12 1.3333333333333333 12s0.34637999999999997 -0.07026666666666666 0.47140666666666664 -0.19526666666666664C1.92976 11.679733333333333 2 11.510133333333332 2 11.333333333333332v-1.3333333333333333c0 -0.17679999999999998 -0.07024 -0.34639999999999993 -0.19526 -0.47139999999999993C1.6797133333333332 9.403599999999999 1.5101466666666665 9.333333333333332 1.3333333333333333 9.333333333333332Zm13.333333333333332 0c-0.17679999999999998 0 -0.34639999999999993 0.07026666666666666 -0.47139999999999993 0.19526666666666664S14 9.8232 14 10v1.3333333333333333c0 0.17679999999999998 0.07026666666666666 0.34639999999999993 0.19526666666666664 0.47139999999999993S14.489866666666666 12 14.666666666666666 12c0.17679999999999998 0 0.34639999999999993 -0.07026666666666666 0.47139999999999993 -0.19526666666666664S15.333333333333332 11.510133333333332 15.333333333333332 11.333333333333332v-1.3333333333333333c0 -0.17679999999999998 -0.07026666666666666 -0.34639999999999993 -0.19526666666666664 -0.47139999999999993S14.843466666666666 9.333333333333332 14.666666666666666 9.333333333333332Zm-3.333333333333333 -4.666666666666666h-2.6666666666666665V3.813333333333333c0.20153333333333334 -0.11634 0.36906666666666665 -0.28339333333333333 0.48606666666666665 -0.4845533333333333 0.11693333333333333 -0.20116 0.17919999999999997 -0.4294266666666667 0.18059999999999998 -0.6621133333333333 0 -0.35361999999999993 -0.14046666666666666 -0.6927599999999999 -0.3905333333333333 -0.9428066666666666C8.692733333333333 1.4738066666666667 8.3536 1.3333333333333333 8 1.3333333333333333c-0.35359999999999997 0 -0.6927333333333332 0.14047333333333334 -0.9427999999999999 0.3905266666666667C6.807133333333333 1.9739066666666665 6.666666666666666 2.3130466666666667 6.666666666666666 2.6666666666666665c0.0013999999999999998 0.23268666666666665 0.06366666666666666 0.4609533333333333 0.18059999999999998 0.6621133333333333 0.11699999999999999 0.20116 0.2845333333333333 0.36821333333333334 0.48606666666666665 0.4845533333333333V4.666666666666666H4.666666666666666c-0.5304333333333333 0 -1.03914 0.21071333333333334 -1.414213333333333 0.5857866666666667C2.8773799999999996 5.627526666666666 2.6666666666666665 6.136233333333333 2.6666666666666665 6.666666666666666v6c0 0.5304 0.21071333333333334 1.0391333333333332 0.5857866666666667 1.4142000000000001C3.627526666666667 14.455933333333334 4.136233333333333 14.666666666666666 4.666666666666666 14.666666666666666h6.666666666666666c0.5304 0 1.0391333333333332 -0.21073333333333333 1.4142000000000001 -0.5858C13.1226 13.7058 13.333333333333332 13.197066666666666 13.333333333333332 12.666666666666666v-6c0 -0.5304333333333333 -0.21073333333333333 -1.03914 -0.5858 -1.414213333333333C12.372466666666668 4.87738 11.863733333333332 4.666666666666666 11.333333333333332 4.666666666666666Zm-2.1866666666666665 1.3333333333333333 -0.3333333333333333 1.3333333333333333h-1.6266666666666665l-0.3333333333333333 -1.3333333333333333h2.293333333333333ZM12 12.666666666666666c0 0.17679999999999998 -0.07026666666666666 0.34639999999999993 -0.19526666666666664 0.47139999999999993S11.510133333333332 13.333333333333332 11.333333333333332 13.333333333333332H4.666666666666666c-0.17681333333333332 0 -0.34637999999999997 -0.07026666666666666 -0.47140666666666664 -0.19526666666666664C4.07024 13.013066666666667 4 12.843466666666666 4 12.666666666666666v-6c0 -0.17681333333333332 0.07024 -0.34637999999999997 0.19526 -0.47140666666666664C4.320286666666666 6.070239999999999 4.489853333333333 6 4.666666666666666 6h0.8133333333333332L6 8.16c0.0365 0.1479333333333333 0.12256666666666667 0.27886666666666665 0.24386 0.37106666666666666 0.12129999999999999 0.0922 0.27052 0.14006666666666667 0.42280666666666666 0.1356h2.6666666666666665c0.15226666666666666 0.0044666666666666665 0.3015333333333333 -0.0434 0.42279999999999995 -0.1356 0.12133333333333332 -0.0922 0.20733333333333331 -0.22313333333333332 0.24386666666666668 -0.37106666666666666L10.52 6H11.333333333333332c0.17679999999999998 0 0.34639999999999993 0.07024 0.47139999999999993 0.19526 0.125 0.12502666666666667 0.19526666666666664 0.2945933333333333 0.19526666666666664 0.47140666666666664v6Zm-2 -2.6666666666666665c-0.13186666666666666 0 -0.2607333333333333 0.039066666666666666 -0.37039999999999995 0.11233333333333334 -0.10959999999999999 0.07326666666666666 -0.19506666666666667 0.1774 -0.24553333333333333 0.29919999999999997 -0.05046666666666667 0.12179999999999999 -0.06366666666666666 0.25586666666666663 -0.03793333333333333 0.3852s0.0892 0.24813333333333332 0.18246666666666667 0.3413333333333333c0.0932 0.09326666666666666 0.212 0.15673333333333334 0.3413333333333333 0.18246666666666667 0.12933333333333333 0.025733333333333334 0.26339999999999997 0.012533333333333334 0.3852 -0.03793333333333333 0.12179999999999999 -0.05046666666666667 0.22593333333333332 -0.13593333333333332 0.29919999999999997 -0.24553333333333333 0.07326666666666666 -0.10966666666666666 0.11233333333333334 -0.23853333333333332 0.11233333333333334 -0.37039999999999995 0 -0.17679999999999998 -0.07026666666666666 -0.34639999999999993 -0.19526666666666664 -0.47139999999999993S10.1768 10 10 10Z" fill="#000000" stroke-width="0.6667"></path></svg>