<svg viewBox="0 0 24 24" fill="none" xmlns="http://www.w3.org/2000/svg" id="Telescope--Streamline-Solar"><desc>Telescope Streamline Icon: https://streamlinehq.com</desc><path d="M17.976 2.60214c0.4634 -0.25959 0.766 -0.42785 1.0065 -0.52377 0.2265 -0.09032 0.3257 -0.08572 0.3933 -0.06817 0.0667 0.01734 0.1533 0.06038 0.3016 0.24683 0.1582 0.1989 0.3331 0.4905 0.6008 0.94044l1.1039 1.85503c0.2678 0.45007 0.4406 0.7426 0.5389 0.97465 0.0923 0.218 0.0853 0.30799 0.0694 0.36586 -0.0163 0.05875 -0.0578 0.14172 -0.2519 0.28702 -0.2056 0.15394 -0.5069 0.32397 -0.9704 0.58363l-3.932 2.20252c-0.4386 0.24567 -0.7223 0.40335 -0.9471 0.49281 -0.2106 0.08381 -0.2965 0.07681 -0.3509 0.06241 -0.0544 -0.0144 -0.1323 -0.05068 -0.2723 -0.2272 -0.1493 -0.18838 -0.3152 -0.46495 -0.5706 -0.89413l-1.179 -1.98126c-0.2623 -0.44085 -0.4311 -0.72669 -0.5272 -0.9533 -0.0903 -0.21271 -0.0831 -0.29912 -0.0684 -0.35349 0.0148 -0.05436 0.0523 -0.13274 0.2383 -0.27241 0.198 -0.14881 0.489 -0.31307 0.9395 -0.56542l3.8776 -2.17205Z" fill="#000000" stroke-width="1"></path><path d="m8.63783 8.4508 3.44927 -1.93211c0.1268 0.26307 0.3036 0.56022 0.5037 0.89645l1.2142 2.04031c0.1832 0.30789 0.3467 0.58265 0.5043 0.80725l-1.5469 0.8665 4.176 9.789c0.1692 0.3966 -0.0194 0.8535 -0.4212 1.0205 -0.4019 0.167 -0.8648 -0.0191 -1.034 -0.4157l-3.4829 -8.1645 -3.48298 8.1645c-0.1692 0.3966 -0.63213 0.5827 -1.03397 0.4157 -0.40185 -0.167 -0.59045 -0.6239 -0.42125 -1.0205l3.6973 -8.667c-0.4024 0.2252 -0.6693 0.3719 -0.88288 0.4569 -0.2106 0.0838 -0.29653 0.0768 -0.3509 0.0624 -0.05438 -0.0144 -0.13235 -0.0507 -0.27228 -0.2272 -0.14934 -0.1884 -0.3152 -0.465 -0.57059 -0.8941l-0.62706 -1.0538c-0.26233 -0.4408 -0.43112 -0.72667 -0.52729 -0.95328 -0.09026 -0.21271 -0.0831 -0.29912 -0.06835 -0.35349 0.01476 -0.05436 0.05233 -0.13274 0.23825 -0.27241 0.19808 -0.14881 0.48904 -0.31307 0.93953 -0.56542Z" fill="#000000" stroke-width="1"></path><path d="m6.62684 10.196 -3.3949 1.9016c-0.46355 0.2597 -0.76486 0.4297 -0.97046 0.5837 -0.19407 0.1453 -0.23562 0.2282 -0.25184 0.287 -0.01599 0.0579 -0.02297 0.1479 0.06938 0.3659 0.0983 0.232 0.27105 0.5245 0.53888 0.9746 0.26774 0.4499 0.44258 0.7415 0.60078 0.9404 0.1483 0.1865 0.23496 0.2295 0.30167 0.2469 0.06753 0.0175 0.16672 0.0221 0.39323 -0.0682 0.24053 -0.0959 0.54314 -0.2642 1.00656 -0.5238l3.37709 -1.8917c-0.1578 -0.2247 -0.32134 -0.4996 -0.50474 -0.8078l-0.66219 -1.1128c-0.19995 -0.336 -0.37667 -0.6329 -0.50346 -0.8958Z" fill="#000000" stroke-width="1"></path></svg>